# xmcd CD database file
#
# Track frame offsets:
#	150
#	28628
#	47122
#	65077
#	84047
#	106898
#	130772
#	156701
#	186600
#	206246
#	224260
#
# Disc length: 3065 seconds
#
# Revision: 0
# Processed by: cddbd v1.5.2PL0 Copyright (c) Steve Scherf et al.
# Submitted via: CDex 1.70beta2
#
DISCID=a50bf70b
DTITLE=Bembel Blues Buben - Schluss mid Lusdisch
DYEAR=2019
DGENRE=Blues
TTITLE0=Hey Mama komm ma
TTITLE1=Bankerblues
TTITLE2=Dschungelbank
TTITLE3=Isch hör net wie de Zuch kommt
TTITLE4=Hesseblues
TTITLE5=Eschd kaaner kennd Disch
TTITLE6=Parallelgesellschaft
TTITLE7=Liebeslied
TTITLE8=Der Eisbär
TTITLE9=Come on Baby
TTITLE10=Nasehaanblues
EXTD=YEAR: 2019
EXTT0=
EXTT1=
EXTT2=
EXTT3=
EXTT4=
EXTT5=
EXTT6=
EXTT7=
EXTT8=
EXTT9=
EXTT10=
PLAYORDER=
